<?xml version="1.0" encoding="UTF-8"?>
<svg id="Layer_1" data-name="Layer 1" xmlns="http://www.w3.org/2000/svg" viewBox="0 0 297.88 148.94">
  <defs>
    <style>
      .cls-1, .cls-2, .cls-3, .cls-4, .cls-5 {
        stroke-width: 0px;
      }

      .cls-1, .cls-4 {
        fill: #6cb640;
      }

      .cls-2 {
        fill: #fff;
      }

      .cls-3, .cls-5 {
        fill: #244ea2;
      }

      .cls-4, .cls-5 {
        fill-rule: evenodd;
      }
    </style>
  </defs>
  <rect class="cls-2" width="297.88" height="148.94"/>
  <path class="cls-5" d="m223.99,88.06h6.84v-13.28l9.99,13.28h8.13l-10.42-13.65,9.37-12.68h-7.98l-9.08,12.26v-24.52h-6.84v38.59Z"/>
  <path class="cls-5" d="m69.93,68.74c.05-.28-.19-1.16-.24-1.25-.29-.93-.72-1.76-1.34-2.51-.91-1.07-2.06-1.76-3.39-2.28-1.67-.6-3.49-.79-5.21-.84-1.86,0-3.82.23-5.54.84-1.43.51-2.63,1.35-3.54,2.55-.96,1.3-1.24,2.88-1.24,4.41,0,1.07.19,2.14.67,3.11.48.93,1.2,1.67,2.1,2.23,1.15.74,2.58,1.25,3.92,1.63l4.97,1.44c.76.23,1.63.51,2.25.98.53.42.91.98.91,1.67,0,.56-.24,1.07-.67,1.49-.43.42-.96.65-1.53.84-.67.19-1.34.23-2.06.23-1.15,0-2.39-.19-3.39-.74-.48-.28-.91-.65-1.2-1.02h-6.45c.29,1.21.76,2.32,1.58,3.34.96,1.16,2.25,1.95,3.63,2.51,1.77.65,3.78.88,5.64.88s3.87-.23,5.64-.93c1.43-.56,2.68-1.39,3.59-2.65.91-1.25,1.29-2.74,1.29-4.27,0-1.11-.19-2.23-.72-3.2-.53-.98-1.34-1.76-2.29-2.41-1.29-.84-2.77-1.44-4.25-1.86l-4.88-1.53c-.62-.23-1.29-.51-1.82-.93-.43-.37-.76-.84-.76-1.44,0-.79.38-1.44,1.1-1.86.76-.42,1.77-.51,2.63-.51,1.05,0,2.15.14,3.01.65.62.33,1.1.84,1.43,1.44h6.17Z"/>
  <path class="cls-5" d="m73.08,88.2h6.84v-13.28l9.99,13.28h8.13l-10.37-13.61,9.37-12.72h-7.98l-9.13,12.31v-24.57h-6.84v38.59Z"/>
  <path class="cls-5" d="m167.06,88.2h6.64v-17c0-1.25-.19-2.51-.72-3.67-.48-1.16-1.24-2.14-2.2-2.97-.96-.88-2.01-1.58-3.25-2.04-1.24-.46-2.58-.7-3.92-.7-1.58,0-3.15.28-4.59.98-1.34.65-2.39,1.67-3.2,2.88l-.57.84-.57-.79c-.86-1.21-1.96-2.23-3.35-2.88-1.43-.7-2.96-.98-4.54-.98-2.68,0-4.92.93-6.69,2.88l-1.2,1.35v-4.23h-6.64v26.33h6.64v-14.91c0-.98.24-1.95.72-2.79.48-.84,1.1-1.49,1.91-2,.81-.51,1.77-.74,2.77-.74s1.91.23,2.72.74c.81.51,1.43,1.16,1.91,2,.48.88.72,1.81.72,2.79v14.91h6.64v-14.91c0-.98.24-1.95.72-2.79.48-.84,1.1-1.49,1.91-2,.81-.51,1.77-.74,2.72-.74s1.91.23,2.72.74c.81.51,1.43,1.16,1.91,2,.48.88.72,1.81.72,2.79v14.91h.05Z"/>
  <path class="cls-5" d="m196.27,72.13c.34.84.48,1.76.48,2.69,0,1.25-.29,2.46-.91,3.58-.57,1.02-1.39,1.9-2.39,2.51-1.05.65-2.2.93-3.39.93s-2.39-.33-3.44-.93c-1-.6-1.82-1.49-2.39-2.51-.62-1.11-.91-2.32-.91-3.58s.29-2.41.91-3.48c.57-1.02,1.39-1.86,2.39-2.46,1.05-.65,2.2-.93,3.44-.93.91,0,1.77.14,2.58.51.81.37,1.53.88,2.2,1.53.62.56,1.1,1.3,1.43,2.14Zm.57,15.88h6.45v-26.33h-6.45v3.07l-1.05-.79c-2.1-1.53-4.49-2.32-7.12-2.32-1.67,0-3.25.28-4.78.93-1.53.65-2.82,1.63-3.92,2.79-1.15,1.25-2.01,2.65-2.63,4.23-.62,1.67-.86,3.44-.86,5.2s.24,3.53.86,5.15c.57,1.58,1.48,3.02,2.63,4.27,1.1,1.21,2.39,2.14,3.92,2.79,1.53.65,3.11.93,4.78.93,1.29,0,2.53-.19,3.78-.6,1.19-.37,2.29-.98,3.3-1.76l1.05-.84v3.3h.05Z"/>
  <path class="cls-5" d="m212.71,61.82h-6.6v26.33h6.6v-13.75c0-1.11.24-2.18.81-3.16.53-.93,1.29-1.67,2.25-2.18.96-.56,2.05-.84,3.2-.84.57,0,1.2.05,1.77.23.14.05.29.09.43.14v-6.55c-1.39.05-2.72.28-4.01.79-1.29.51-2.39,1.3-3.25,2.41l-1.2,1.53v-4.97Z"/>
  <path class="cls-3" d="m242.15,91.59v6.55c0,.09.05.19.1.28.05.05.14.09.29.09h.43c.1,0,.19-.05.24-.09.05-.05.1-.14.1-.28v-4.88l4.06,5.02c.14.14.29.23.53.23h.38c.1,0,.19-.05.29-.09.05-.05.1-.14.1-.23v-6.55c0-.09-.05-.19-.1-.28-.05-.05-.14-.09-.29-.09h-.43c-.1,0-.19.05-.24.09-.05.05-.1.14-.1.28v4.88l-4.06-5.02c-.14-.19-.29-.23-.53-.23h-.38c-.1,0-.19.05-.24.09-.1.09-.14.14-.14.23Zm-14.48,3.3c0-.74.24-1.39.76-1.9.53-.51,1.15-.74,1.86-.74.76,0,1.39.23,1.86.74.48.51.76,1.11.76,1.9,0,.74-.24,1.39-.76,1.9-.48.51-1.15.74-1.86.74-.76,0-1.39-.23-1.86-.74-.48-.51-.76-1.16-.76-1.9Zm-1.24,0c0,1.07.38,1.95,1.1,2.69.72.7,1.67,1.07,2.77,1.07s2.01-.37,2.77-1.07c.76-.7,1.1-1.63,1.1-2.69s-.38-1.95-1.1-2.69c-.76-.7-1.67-1.07-2.77-1.07s-2.01.37-2.77,1.07c-.72.74-1.1,1.63-1.1,2.69Zm-9.18,3.25c0,.09.05.19.1.28.05.05.14.09.29.09h.48c.1,0,.19-.05.24-.09.05-.05.1-.14.1-.28v-6.5c0-.09-.05-.19-.1-.28-.05-.05-.14-.09-.24-.09h-.48c-.1,0-.19.05-.29.09-.05.05-.1.14-.1.28v6.5Zm-14.24-6.5v.37c0,.09.05.19.1.28.05.05.14.09.29.09h2.25v5.81c0,.09.05.19.1.28.05.05.14.09.29.09h.48c.1,0,.19-.05.24-.09.05-.05.1-.14.1-.28v-5.85h2.25c.1,0,.19-.05.24-.09.05-.05.1-.14.1-.28v-.37c0-.09-.05-.19-.1-.28-.05-.05-.14-.09-.24-.09h-5.74c-.1,0-.19.05-.29.09,0,.14-.05.19-.05.33Zm-9.99,1.25l1.34,3.02h-2.68l1.34-3.02Zm-3.58,5.29c-.05.09-.05.19,0,.23.05.05.09.09.24.09h.53c.1,0,.19-.05.29-.09.1-.05.19-.14.19-.23l.53-1.16h3.58l.53,1.16c.05.09.1.19.19.23.1.05.19.09.29.09h.53c.1,0,.19-.05.24-.09.05-.05.05-.14,0-.23l-2.96-6.64c-.05-.09-.1-.14-.19-.19-.1-.05-.19-.09-.29-.09h-.29c-.24,0-.38.09-.48.28l-2.92,6.64Zm-7.55-1.21c.05-.09.05-.19.05-.28-.05-.09-.1-.14-.19-.19l-.48-.19s-.1-.05-.14-.05c-.14,0-.29.05-.38.19-.53.65-1.19.98-2.05.98-.76,0-1.39-.23-1.87-.74-.53-.51-.76-1.11-.76-1.9,0-.74.24-1.39.76-1.9.53-.51,1.15-.74,1.87-.74.86,0,1.58.33,2.05.98.1.14.24.19.38.19.05,0,.1,0,.14-.05l.48-.19c.09-.05.14-.09.19-.19s0-.19-.05-.28c-.33-.51-.81-.93-1.39-1.21-.57-.28-1.19-.42-1.86-.42-1.1,0-2.01.37-2.77,1.07-.72.7-1.1,1.63-1.1,2.69s.38,1.95,1.1,2.69c.72.7,1.67,1.07,2.77,1.07.67,0,1.29-.14,1.86-.42.57-.19,1.05-.6,1.39-1.11Zm-18.21,1.67c.91,0,1.67-.28,2.29-.88.62-.56.91-1.3.91-2.18v-3.99c0-.09-.05-.19-.1-.28-.05-.05-.14-.09-.29-.09h-.48c-.1,0-.19.05-.29.09-.05.05-.1.14-.1.28v3.99c0,.56-.19,1.02-.57,1.39-.38.37-.86.56-1.43.56s-1.05-.19-1.43-.56c-.38-.37-.57-.84-.57-1.39v-3.99c0-.09-.05-.19-.1-.28-.05-.05-.14-.09-.24-.09h-.48c-.1,0-.19.05-.29.09-.05.05-.1.14-.1.28v3.99c0,.88.29,1.58.91,2.18.67.56,1.43.88,2.34.88Zm-16.78-1.21v-5.11h1.77c.76,0,1.39.23,1.86.74.52.51.76,1.11.76,1.81s-.24,1.3-.76,1.81c-.53.51-1.15.74-1.86.74h-1.77Zm-1.15-5.81v6.5c0,.09.05.19.1.28.05.05.14.09.29.09h2.63c1.1,0,2.01-.37,2.77-1.07.76-.7,1.1-1.58,1.1-2.55s-.38-1.86-1.1-2.55c-.76-.7-1.67-1.07-2.77-1.07h-2.63c-.1,0-.19.05-.29.09-.1.09-.1.14-.1.28Zm-13.43,0v6.5c0,.09.05.19.1.28.05.05.14.09.29.09h4.73c.1,0,.19-.05.24-.09.05-.05.1-.14.1-.28v-.37c0-.09-.05-.19-.1-.28-.05-.09-.14-.09-.24-.09h-3.92v-2.04h3.3c.1,0,.19-.05.29-.09.05-.05.1-.14.1-.28v-.37c0-.09-.05-.19-.1-.28-.05-.05-.14-.09-.29-.09h-3.3v-1.95h3.87c.1,0,.19-.05.24-.09.05-.05.1-.14.1-.28v-.37c0-.09-.05-.19-.1-.28-.05-.05-.14-.09-.24-.09h-4.68c-.1,0-.19.05-.29.09-.05.19-.1.23-.1.37Z"/>
  <path class="cls-1" d="m124.71,69.07c.38.05.67.37.62.7-.05.37-.33.65-.72.6-.38-.05-.67-.37-.62-.7.05-.37.38-.65.72-.6Zm-1.91,13.05c2.82-4.64,5.26-9.47,7.74-13.05l-5.88-1.3c-2.15-.46-2.77.33-3.92,2.14l-3.01,4.37c.24,1.02.33,2.14.33,3.2,0,6.41-3.87,11.94-9.46,14.49-2.58,1.35-5.54,2-8.65,1.63,0,.09,13.53,2.83,22.85-11.47Z"/>
  <path class="cls-4" d="m103.62,61.82c8.46,1.16,14.44,9.24,13.29,18.02-1.15,8.78-8.89,14.91-17.35,13.79,5.4-2.09,9.51-7.11,10.33-13.42,1.05-8.27-3.92-15.93-11.38-18.2,1.63-.37,3.35-.42,5.11-.19Z"/>
  <path class="cls-5" d="m103.62,61.82c7.65,1.07,13.24,7.76,13.43,15.46-1.67,5.39-5.78,9.71-11.09,11.8,2.06-2.41,3.49-5.43,3.92-8.87,1.05-8.27-3.92-15.93-11.38-18.2,1.63-.37,3.35-.42,5.11-.19Z"/>
</svg>